inDegrees=no
num_controls=7
num_derivatives=13
num_iterations=87
num_multipliers=7
num_parameters=0
num_slacks=7
num_states=26
objective=0.440940
objective_accelerations=0.019235
objective_balance=0.000703
objective_effort=0.006925
objective_height=0.407764
objective_ligament=0.006312
solver_duration=1281.159636
status=Solve_Succeeded
success=true
DataType=double
version=3
OpenSimVersion=4.5
endheader
time	/jointset/ground_pelvis/pelvis_tilt/value	/jointset/ground_pelvis/pelvis_tx/value	/jointset/ground_pelvis/pelvis_ty/value	/jointset/hip_l/hip_flexion_l/value	/jointset/hip_l/hip_adduction_l/value	/jointset/hip_l/hip_rotation_l/value	/jointset/back/lumbar_extension/value	/jointset/patellofemoral_l/patellar_flexion_l/value	/jointset/knee_l/knee_flexion_l/value	/jointset/knee_l/knee_adduction_l/value	/jointset/knee_l/knee_rotation_l/value	/jointset/ankle_l/ankle_angle_l/value	/jointset/subtalar_l/subtalar_angle_l/value	/jointset/ground_pelvis/pelvis_tilt/speed	/jointset/ground_pelvis/pelvis_tx/speed	/jointset/ground_pelvis/pelvis_ty/speed	/jointset/hip_l/hip_flexion_l/speed	/jointset/hip_l/hip_adduction_l/speed	/jointset/hip_l/hip_rotation_l/speed	/jointset/back/lumbar_extension/speed	/jointset/patellofemoral_l/patellar_flexion_l/speed	/jointset/knee_l/knee_flexion_l/speed	/jointset/knee_l/knee_adduction_l/speed	/jointset/knee_l/knee_rotation_l/speed	/jointset/ankle_l/ankle_angle_l/speed	/jointset/subtalar_l/subtalar_angle_l/speed	/forceset/tau_hip_flexion_l	/forceset/tau_hip_adduction_l	/forceset/tau_hip_rotation_l	/forceset/tau_knee_flexion_l	/forceset/tau_ankle_angle_l	/forceset/tau_subtalar_angle_l	/forceset/tau_lumbar_extension	lambda_cid13_p0	lambda_cid13_p1	lambda_cid13_p2	lambda_cid13_p3	lambda_cid13_p4	lambda_cid13_p5	lambda_cid14_p0	/jointset/ground_pelvis/pelvis_tilt/accel	/jointset/ground_pelvis/pelvis_tx/accel	/jointset/ground_pelvis/pelvis_ty/accel	/jointset/hip_l/hip_flexion_l/accel	/jointset/hip_l/hip_adduction_l/accel	/jointset/hip_l/hip_rotation_l/accel	/jointset/back/lumbar_extension/accel	/jointset/patellofemoral_l/patellar_flexion_l/accel	/jointset/knee_l/knee_flexion_l/accel	/jointset/knee_l/knee_adduction_l/accel	/jointset/knee_l/knee_rotation_l/accel	/jointset/ankle_l/ankle_angle_l/accel	/jointset/subtalar_l/subtalar_angle_l/accel	gamma_cid13_p0	gamma_cid13_p1	gamma_cid13_p2	gamma_cid13_p3	gamma_cid13_p4	gamma_cid13_p5	gamma_cid14_p0
0.5	0.05732701902223469	0.1214460614903142	0.8659337429847029	0.3284257216140968	-0.3744957017325617	-0.1166058821819966	-0.3657138832347796	0.5900640481874522	0.5900640481875016	-0.09814948692686618	-0.174481920809362	0.3014578832310582	0.1451552303783601	-0.004403446117076981	0.01898788718907206	-0.1405635889923366	0.5859912503610181	-0.01070847723075196	0.2754448420942012	-0.3453547112464006	1.017639641089253	1.01763964108926	0.1803218983513072	0.0002567675157019321	0.5297791092636633	0.1964998053404783	0.005777255929864305	0.02302567461737822	0.009985580387013269	-0.1932608578843222	-0.02609029237049227	-0.009140602300697964	0.04921913304478988	-35.54952840010185	10.11009239248753	-1.796731893258035	6.226218583648033	-457.5640591237161	-61.5670228506494	-19.57511023289878	-0.2583504730991695	-0.06565635555383874	-0.1107840104413833	-0.130375315779558	-0.01003815357832272	-0.4026517232501594	0.6158872305903277	-0.8361521907866603	-0.8361521907866566	-0.2254723390675234	0.05558455724334305	-0.5634447382971051	-0.03390518589550184	-3.384224596449707e-08	-1.251685518289248e-06	6.459442034521011e-07	-1.260697915847233e-07	-5.120676601294625e-08	-1.201624956681845e-06	-1.487946229550267e-07
0.51	0.0572699707927883	0.1216326988328861	0.8645228427482542	0.3342781321093166	-0.3746039074680428	-0.1138729345155712	-0.3691360807206692	0.6001970401267513	0.6001970401269076	-0.09635851647127894	-0.1744783033969778	0.3067265724360952	0.1471173031624086	-0.007014983541329545	0.01834231254548599	-0.1415856707302277	0.5844098408433754	-0.01093359801433987	0.2711050801492982	-0.3390338938512492	1.008808270442971	1.008808270442989	0.1778587197323301	0.0004518433430186602	0.5238874171241471	0.1958791359832726	0.004723607067567803	0.02468314825802331	0.009796698962988216	-0.1942740396456401	-0.02822844734035479	-0.008231920252659316	0.0503267168042734	-36.22896846977297	9.887991300296509	-1.822517969256129	6.415988166881705	-458.3846482085568	-61.54399942306086	-19.20915855881967	-0.2638785373975231	-0.0636231221126988	-0.09331271987632962	-0.1841791773327561	-0.02888240753961405	-0.4557064342370428	0.6478128062509827	-0.9291715889499059	-0.9291715889482659	-0.2588934438321183	-0.0006827864276197498	-0.6127722255649051	-0.08137419522261538	-3.330057260676435e-08	-1.204980225220365e-06	6.510356515661004e-07	-1.212743088155553e-07	-5.415144397352793e-08	-1.188765904775135e-06	-1.442376554921451e-07
0.52	0.0571865425570289	0.1218129574083515	0.8631026432015441	0.3401122974278409	-0.3747143910847204	-0.1111845980694183	-0.3724935432701536	0.6102372099420943	0.6102372099423845	-0.09459260836596238	-0.1744731656027349	0.3119341965649788	0.1490721239759669	-0.009679447377929749	0.01771213376777339	-0.1424234510446162	0.5823422150226913	-0.01116405346955365	0.2665225980393246	-0.3324077239651409	0.9990752163006527	0.9990752163006809	0.17530942829258	0.0005608438941952323	0.5175660940331878	0.1950494112424846	0.003669958205302577	0.02634062189867637	0.009607817539089555	-0.1952872214069521	-0.0303666023102116	-0.007323238204609448	0.05143430056377644	-36.91115480227071	9.661453018822606	-1.84197882245351	6.603550968799468	-459.2671569189762	-61.56341994849848	-18.83963981386417	-0.2689357555684964	-0.06257718237932226	-0.073923725740855	-0.2276185763878128	-0.01110508790347034	-0.4511957562642705	0.6769577287817801	-1.016488889993959	-1.01648888999395	-0.2426949032220541	0.03836950201531232	-0.6493709285859018	-0.07571626261203684	-3.251595614040109e-08	-1.152571765015067e-06	6.522855851457221e-07	-1.159099775027199e-07	-5.648276886897435e-08	-1.1688637888523e-06	-1.390465746268265e-07
0.53	0.05707621770287166	0.1219869958499892	0.8616750010987766	0.3459233833179519	-0.3748271914934362	-0.1085430015093479	-0.3757832676161562	0.6201755949140955	0.6201755949143039	-0.09285268899090005	-0.1744671445998356	0.3170765089768706	0.1510175972081514	-0.01239292080433486	0.0170988324327279	-0.1430727554871292	0.5797950003290043	-0.01139528482016797	0.2617649484131052	-0.3254911106543788	0.988456566292482	0.9884565662925007	0.1726623045589504	0.0006341514975981721	0.5108293868421393	0.1940108271804209	0.002664907099492421	0.02790844830244997	0.009400265712704636	-0.1963652508080636	-0.03233418069952552	-0.006480282171039531	0.05250218429938722	-37.5416906971684	9.460449767822311	-1.872402950343409	6.758583548939641	-460.118702029608	-61.54713610502893	-18.46759441616453	-0.2736678071500299	-0.06023754706043993	-0.05561324169025063	-0.2802712637250871	-0.02902934061057465	-0.4929359149044312	0.70591831959374	-1.106307562748972	-1.106307562750417	-0.2776585514223746	-0.009489861597442275	-0.6959108162047032	-0.1229917542172518	-3.177536964041534e-08	-1.101685957285289e-06	6.541742043531353e-07	-1.106499938803101e-07	-5.879591958276903e-08	-1.149511522566577e-06	-1.341321007027718e-07
0.54	0.05693853518024709	0.1221549950906775	0.8602418300639476	0.3517065973915497	-0.3749422836520556	-0.1059499587153584	-0.3790024447915782	0.6300034424846842	0.6300034424848616	-0.09113962834172172	-0.1744606507711763	0.3221494362764827	0.1529516721444722	-0.01515098106966016	0.01650429357789997	-0.1435292374569432	0.5767678517206852	-0.0116224034495929	0.2568118448227348	-0.3182982898487854	0.9769677360234982	0.9769677360235068	0.1699376831057608	0.0006554090569911593	0.5036890715774734	0.1927697520698069	0.001659855993722716	0.02947627470624059	0.009192713886597079	-0.1974432802091715	-0.03430175908883044	-0.005637326137446886	0.05357006803502109	-38.17499855433148	9.254972010068542	-1.896448206285889	6.911472903617075	-461.0325135248905	-61.57335539349022	-18.09405411784323	-0.2778531233523493	-0.05882468633597613	-0.03535923120104797	-0.3236053593141733	-0.0102825436655728	-0.4902865490944762	0.7321992277481061	-1.190524942156558	-1.190524942156613	-0.2581944471340342	0.0279594932132927	-0.7300925433095854	-0.1162144723221687	-3.108349714578341e-08	-1.052484786336938e-06	6.567694544678924e-07	-1.055054587664562e-07	-6.108896269133198e-08	-1.130767600560214e-06	-1.295236599903283e-07
0.55	0.05677306220160235	0.1223171444484862	0.8588050686529997	0.3574571716054488	-0.3750596158353916	-0.103407146109575	-0.3821483621938681	0.6397121112906854	0.6397121112907677	-0.08945428086490324	-0.1744540065219284	0.3271489879556654	0.1548723139218619	-0.01794936897146044	0.01592910918627539	-0.143789712318566	0.5732682933636457	-0.01184164092697444	0.2517250496914014	-0.3108441816356415	0.9646266256952755	0.964626625695287	0.1671210849841405	0.0006685116448395506	0.4961583628727452	0.1913255288114109	0.000696596225904758	0.03089393061494627	0.008972629085409623	-0.1985642946919189	-0.03614402314889851	-0.00481156056690824	0.05460022585196937	-38.76655831441036	9.049471090744582	-1.920285228033241	7.039824239494751	-461.9059916512497	-61.61678811954239	-17.71999322031995	-0.2816993270996159	-0.05635617551256788	-0.01640421946494431	-0.37493939792491	-0.02740803530510328	-0.5218371942027159	0.7581679643354632	-1.276788597726925	-1.276788597726456	-0.2951029949762204	-0.01267272168109458	-0.7740317732873033	-0.1634048327288454	-3.012672431409195e-08	-9.978021102151572e-07	6.540575166363031e-07	-9.98422527231299e-08	-6.249018545966806e-08	-1.103535378179628e-06	-1.242318732621276e-07
0.5600000000000001	0.05657943180323015	0.1224736437903911	0.8573666999722714	0.3631703885709697	-0.3751790731306112	-0.1009159936949127	-0.3852185082447799	0.649293192089457	0.6492931920895068	-0.08779744146929168	-0.1744473629195155	0.3320713381999532	0.1567775377506413	-0.02078246501347096	0.01537429039713183	-0.1438506914130127	0.5692964020455704	-0.01204742582558615	0.2464798065980646	-0.3031440195729624	0.9514501345841824	0.9514501345841967	0.1642360668505104	0.0006552797026195818	0.4882487845987014	0.1896861623477921	-0.0002666635418695639	0.03231158652366757	0.008752544284592559	-0.1996853091746656	-0.03798628720895859	-0.003985794996350421	0.05563038366894348	-39.36081141306156	8.83922390300962	-1.937405411865322	7.165828582194898	-462.8422318622826	-61.70334535282788	-17.34637005705687	-0.2847947513942249	-0.05475156583992744	0.004539922234173958	-0.4180719515212756	-0.00759202791159309	-0.5219761414951851	0.7814099976552057	-1.357601098730588	-1.357601098730654	-0.2718784495359702	0.02269258719957627	-0.8058664571728558	-0.1552431133667954	-2.885207107792903e-08	-9.365416278852609e-07	6.449769532690984e-07	-9.355664156443679e-08	-6.282122381973193e-08	-1.066117195349977e-06	-1.181200713150183e-07
